<?xml version="1.0" encoding="UTF-8"?>
<svg width="2119" height="588" xmlns="http://www.w3.org/2000/svg" xmlns:svg="http://www.w3.org/2000/svg">
 <!-- Created with SVG-edit - http://svg-edit.googlecode.com/ -->
 <g>
  <title>Layer 1</title>
  <g id="svg_1">
   <g id="svg_2">
    <g id="svg_3">
     <path d="m695.099976,504.100006l-28.699951,0l0,-10.200012l70,0l0,10.200012l-28.899963,0l0,82.200043l-12.400085,0l0,-82.200043z" fill="#999B9E" id="svg_4"/>
     <path d="m833.500061,543l-36.600037,0l0,33.199951l40.900024,0l0,10l-53.299988,0l0,-92.299957l51.200012,0l0,10l-38.800049,0l0,29.100006l36.600037,0l0,10z" fill="#999B9E" id="svg_5"/>
     <path d="m957.299988,583.300049c-4.400085,2.099976 -13.400085,4.400024 -24.900024,4.400024c-26.699951,0 -46.600037,-16.400024 -46.600037,-46.700012c0,-29 20,-48.400055 49.300049,-48.400055c11.600037,0 19.200012,2.299988 22.399902,4l-3,9.799988c-4.599976,-2.099976 -11.099915,-3.799988 -19,-3.799988c-22.099915,0 -36.799866,13.800018 -36.799866,38.000031c0,22.499939 13.299866,36.899963 36.099915,36.899963c7.500061,0 15,-1.499939 20,-3.799927l2.500061,9.599976z" fill="#999B9E" id="svg_6"/>
     <path d="m1022.700012,493.899994l0,38.700043l45.499939,0l0,-38.700043l12.400024,0l0,92.400055l-12.400024,0l0,-43.200073l-45.499939,0l0,43.200073l-12.300049,0l0,-92.400055l12.300049,0z" fill="#999B9E" id="svg_7"/>
     <path d="m1139.599976,586.300049l0,-92.400055l13.5,0l30.099976,46.600006c6.900024,10.800049 12.400024,20.399963 16.800049,30l0.299927,-0.099976c-1.099976,-12.300049 -1.399902,-23.599976 -1.399902,-37.900024l0,-38.600006l11.599976,0l0,92.400055l-12.5,0l-29.900024,-46.700012c-6.5,-10.400085 -12.900024,-20.900085 -17.5,-30.900055l-0.400024,0.100037c0.700073,11.800018 0.900024,22.899933 0.900024,38.199982l0,39.300049l-11.5,0z" fill="#999B9E" id="svg_8"/>
     <path d="m1307,578c-19.099976,0 -30,-17.900024 -29.900024,-37.400024c-0.099976,-19.900024 9.900024,-38.399994 30.200073,-38.399994c20.199951,0 30,19.100006 30,37.499969c0,20.900024 -10.800049,38.300049 -30.100098,38.300049l-0.199951,0zm-0.200073,9.800049c24,0 43.800049,-17 43.800049,-48.600037c0,-27.499969 -16.800049,-46.800018 -42.600098,-46.800018c-25.199951,0 -43.699951,19.300049 -43.699951,48.499969c0,27.900085 17.400024,46.900085 42.5,46.900085l0,0z" fill="#999B9E" id="svg_9"/>
     <path d="m1404,493.899994l12.300049,0l0,82.199982l40.299927,0l0,10.099976l-52.699951,0l0,-92.299957l0.099976,0z" fill="#999B9E" id="svg_10"/>
     <path d="m1539.900024,578c-19.099976,0 -30,-17.900024 -30,-37.400024c0,-19.900024 10,-38.399994 30.300049,-38.399994c20.199951,0 30,19.100006 30,37.499969c0,20.900024 -10.900024,38.300049 -30.100098,38.300049l-0.199951,0zm-0.200073,9.800049c24,0 43.599976,-17 43.599976,-48.600037c0,-27.499969 -16.699951,-46.800018 -42.599976,-46.800018c-25.199951,0 -43.699951,19.300049 -43.699951,48.499969c0,27.900085 17.299927,46.900085 42.399902,46.900085l0.300049,0z" fill="#999B9E" id="svg_11"/>
     <path d="m1708.900024,582.099976c-5.5,2 -16.300049,5 -29.099976,5c-14.300049,0 -26.099976,-3.499939 -35.300049,-12.200012c-8.099976,-7.700012 -13.099976,-19.899902 -13.099976,-34.299927c0,-27.599976 19.5,-47.700043 51,-47.700043c11,0 19.599976,2.299988 23.699951,4.200012l-3.099976,9.900024c-5.099976,-2.300049 -11.299927,-4 -20.900024,-4c-22.799927,0 -37.799927,13.899933 -37.799927,36.899933c0,23.299988 14.299927,37.200012 36.400024,37.200012c7.899902,0 13.299927,-1.099915 16.099976,-2.499939l0,-27.500061l-19.099976,0l0,-9.599976l31.199951,0l0,44.599976z" fill="#999B9E" id="svg_12"/>
     <path d="m1777.599976,493.899994l0,92.400055l-12.400024,0l0,-92.400055l12.400024,0z" fill="#999B9E" id="svg_13"/>
     <path d="m1885.599976,543l-36.599976,0l0,33.199951l40.900024,0l0,10l-53.300049,0l0,-92.299957l51.099976,0l0,10l-38.699951,0l0,29.100006l36.599976,0l0,10z" fill="#999B9E" id="svg_14"/>
     <path d="m1940.599976,571.600037c5.5,3.299927 13.399902,6 21.800049,6c12.5,0 19.800049,-6.299988 19.800049,-15.700073c0,-8.499939 -5.200195,-13.599915 -17.800049,-18.200012c-15.400146,-5.299927 -25,-13.299927 -25,-26.199951c0,-14.399994 12.199951,-24.999969 30.599854,-24.999969c9.700195,0 16.800049,2.099976 20.900146,4.399963l-3.400146,9.900024c-3,-1.700012 -9.299805,-4.400024 -17.799805,-4.400024c-12.900146,0 -17.800049,7.5 -17.800049,13.699982c0,8.599976 5.800049,12.799988 18.699951,17.700073c16.100098,6.099915 24.100098,13.699951 24.100098,27.200012c0,14.099915 -10.700195,26.599976 -33.100098,26.599976c-9.100098,0 -19.100098,-2.700073 -24.199951,-6l3.199951,-10z" fill="#999B9E" id="svg_15"/>
    </g>
    <path d="m1089.299927,218.600006c-74.599915,0 -118.099976,35.5 -134.999939,75.900024l-1.30011,0l1.30011,-3.5l0,-167.500031l-76.799988,0l0,123.800018l-1.100037,0c-13.399963,-16.100006 -43.099976,-28.200012 -83.099976,-28.200012c-71.400085,0 -133.100037,44.799988 -132.600037,115.900024c0,67.599976 58.700012,110.199951 126.199951,110.199951c41.400085,0 77.900024,-14.199951 96.600098,-41.199951l1.099976,0l3.099976,35.899963l68.900024,0c-1.299988,-13.299988 -2.100098,-37 -2.200012,-60.899963c0,-0.400024 -1.299988,-3.200012 -1.299988,-3.700012l1.299988,0c18.799988,42.899963 69,69.5 142.499939,69.5c42.400024,0 76.800049,-5.900024 103.900024,-14.799988l-11.099976,-41.400024c-24.200073,6.700012 -48.800049,10.5 -82.599976,10.5c-45.600098,0 -85.5,-16.700012 -88,-49.400024l194.799927,0.400024c1.5,-4.799988 2.900024,-13.900024 2.900024,-23.600037c0,-45.699982 -29.899902,-107.899963 -127.5,-107.899963zm-211.799866,121c0,5.700012 -0.400085,11.099976 -1.900085,16.299988c-6.099915,22.799988 -32.099915,40.799988 -63.899902,40.799988c-45.900024,0 -72.900024,-27.299988 -72.900024,-64.5c0,-38.199951 26.799927,-66.899963 73.5,-66.899963c33.099976,0 57,17.199982 63.599976,38.5c1.099976,4.200012 1.5,9.399963 1.5,13.700012l0,22.099976l0.100037,0zm141.099915,-32.200012c3.400024,-19.5 21.599976,-48.299988 66.300049,-48.299988c50.5,0 59.899902,34.099976 59.699951,48.299988l-126,0zm616.199951,52.799988c0,3.799988 -0.400024,8.200012 -1.900024,12.099976c-6.599976,15 -27.099976,30 -55.699951,30c-23.5,0 -39.900024,-9.799988 -39.900024,-28.5c0,-28.899963 43,-38 97.5,-37.399963l0,23.799988zm409.600098,-135.799988l-1.699951,28.700012l-1.100098,0c-15.300049,-20.100006 -42.300049,-34 -85,-34c-48.799927,0 -104.399902,24.799988 -122.199951,78.5l-128.5,0c-2.5,-19 -10,-36.600006 -24.599976,-50.300018c-18.5,-17.199982 -48.300049,-28.199982 -93.599976,-28.199982c-24.100098,0 -45.5,2.5 -63.600098,6.299988c-18.199951,3.799988 -33,8.899994 -43.899902,14.100006l7.399902,19.399994l7.5,19.5c9.600098,-4.700012 22.400024,-9.100006 36.400024,-12.200012c14,-3.199982 29.200073,-5.099976 43.800049,-5.099976c25.799927,-0.100006 40.099976,5.699982 48,12.899994c7.900024,7.199982 9.400024,15.699982 9.400024,21.100006l0,1.299988l0,1.299988c-55.100098,-0.200012 -98.100098,6.799988 -127.400024,20.700012c-29.300049,13.900024 -44.700073,34.700012 -44.700073,62c0,2.299988 0.200073,4.599976 0.5,6.900024c0.300049,2.299988 0.800049,4.599976 1.5,6.799988c-2.599976,0.399963 -5.399902,0.700012 -8.599976,0.799988c-3.199951,0.200012 -6.900024,0.200012 -11.400024,0.200012c-14.799927,0 -23.899902,-3.799988 -29.299927,-10.900024c-5.400024,-7.099976 -7.200073,-17.399963 -7.200073,-30.599976l0,-41.700012l0,-41.700012l33.400024,0l33.5,0l0,-22.899963l0,-23l-33.5,0l-33.400024,0l0,-28.5l0,-28.5l-37.299927,8l-37.300049,8l0,20.600006l0,20.5l-15.199951,0l-15.200073,0l0,-50.5l0,-50.399994l-38.5,0l-38.300049,0l0,158.199982l0,158.199982l38.300049,0l38.400024,0l0,-84.699951l0,-84.800018l15.199951,0l15.200073,0l0,46.399994l0,46.5c0,13.899963 1.799927,26.299988 5.399902,36.699951c3.700073,10.5 9.200073,19.100037 16.900024,25.600037c6.599976,5.700012 15.599976,10.600037 26.400024,14.100037c10.800049,3.5 23.400024,5.5 37.300049,5.5c11.899902,0 22.899902,-0.700012 32.199951,-1.899963c9.400024,-1.200012 17.099976,-2.800049 22.5,-4.5l-0.300049,-13.400024l-0.399902,-13.5c7,9.400024 17.199951,17.799988 30.599976,23.700012c13.5,6 30.099976,9.5 49.799927,9.5c18.600098,0 35.600098,-2.900024 50.100098,-8c14.5,-5 26.599976,-12.299988 35.399902,-20.900024l0.900024,0l1,0l2.599976,11.799988l2.600098,11.800049l33.5,0l33.5,0c-1.5,-6.200012 -2.5,-14.200012 -3.300049,-23.299988c-0.699951,-9.100037 -1.099976,-19.200012 -1.099976,-29.700012l0,-37.100037l0,-13.399963l121.900024,0c0.799927,68.599976 59.099976,108.799988 121,108.799988c42.599854,0 73.199951,-14 90.899902,-37.099976l1.100098,0l0,178.699982l75.39978,0l0,-300.899994c0,-20.600037 0.900146,-40.800018 1.800049,-61.500031l-74.699829,0l0,0.100006l0,-0.000061zm-2.600098,119.400024c0,4.900024 -1,11.299988 -2.800049,16.099976c-7.300049,21 -31.699951,37.5 -62.599854,37.5c-45,0 -70.900146,-27.699951 -70.900146,-64.699951c0,-38.200012 26.199951,-66.800018 72.400146,-66.800018c33.099854,0 56.099854,18.499969 62.299805,38.899994c1.100098,4 1.5,8 1.5,12.299988l0,26.700012l0.100098,0z" fill="#999B9E" id="svg_16"/>
   </g>
   <g id="svg_17">
    <path d="m336.300018,474.199982l56.499969,-106.099976l-19.499969,-48l-74.399994,147.399963c12.499939,3.100037 24.999939,5.400024 37.399994,6.700012z" fill="#FDBB30" id="svg_18"/>
    <path d="m436.899963,533.099976c-10.900024,8.599976 -33.799957,18.900085 -47.599945,23.700073c37.799988,12.399902 75.199951,24.799988 92.699921,30.599976l-19.899933,-49c-8.400024,-1.799988 -16.799988,-3.599976 -25.200043,-5.300049z" fill="#FDBB30" id="svg_19"/>
    <path d="m308.899963,98.799988c136.800018,42.600006 230.399963,176.600006 211.599976,300.999969l3.900024,7.900024c21.5,-24.799988 36.099976,-55 42.200012,-88.700012c22.299988,-121.799988 -69.399994,-255.099976 -204.499969,-297.099976c-70.300018,-21.899994 -142.200027,-15.399994 -197.300003,17.899994c-34.700012,21 -60.600021,51.399994 -75.600021,87.899963c0,0.600037 0.699997,0.400024 0.699997,0.400024c0.399994,-0.400024 3.199997,-2.800018 3.699997,-3.100006c4,-2.800018 6.600021,-4.700012 10.800003,-7.200012c57.299988,-34.600006 131.700012,-41.699997 204.499985,-19l0,0.000031z" fill="#FDBB30" id="svg_20"/>
    <path d="m450.899963,510.899994l-14.900024,-36.599976c-77.399963,23.799988 -150.999939,-1.200012 -155.899933,-2.700012c-125.200027,-39 -214.200012,-154.299988 -214.200012,-268.899994c0,-14.600006 3.300003,-42.899994 5.599991,-46.300018c0.400009,-0.599976 -0.299988,-1.099976 -0.299988,-1.199982c-25.200012,26 -42.200012,59 -49,96.100006c-22.199997,121.799988 69.5,255.299988 204.600006,297.199982c121.09996,37.599976 203.799973,-17.300049 224.09996,-37.600006z" fill="#FDBB30" id="svg_21"/>
    <path d="m446.100006,270.899994c-0.500031,0.299988 -65.799988,42.599976 -65.799988,42.599976l111.499969,274.299957c4.799988,-1.399902 97,-29 97.899963,-29.19989c-0.299988,-0.500061 -141.599945,-283.700043 -143.599945,-287.700043z" fill="#FDBB30" id="svg_22"/>
   </g>
  </g>
 </g>
</svg>